<svg
  width="19"
  height="24"
  viewBox="0 0 19 24"
  fill="none"
  xmlns="http://www.w3.org/2000/svg"
>
  <path
    d="M16.58 16.3828L12.9389 14.0161L14.3116 11.4994C14.6316 10.9117 14.7995 10.2532 14.8 9.58405V5.6C14.8 4.11479 14.21 2.69041 13.1598 1.6402C12.1096 0.589998 10.6852 0 9.20001 0C7.7148 0 6.29041 0.589998 5.24021 1.6402C4.19001 2.69041 3.60001 4.11479 3.60001 5.6V9.58405C3.60051 10.2533 3.7684 10.9117 4.08841 11.4994L5.46116 14.0161L1.82001 16.3828C1.26041 16.7451 0.800596 17.2419 0.482643 17.8278C0.164689 18.4137 -0.0012507 19.07 7.09742e-06 19.7366V24H18.4V19.7366C18.4013 19.07 18.2353 18.4137 17.9174 17.8278C17.5994 17.2419 17.1396 16.7451 16.58 16.3828ZM16.8 22.4H1.60001V19.7366C1.59926 19.3366 1.69883 18.9428 1.88961 18.5913C2.08039 18.2397 2.35629 17.9417 2.69206 17.7243L7.57506 14.5503L5.49306 10.7333C5.30106 10.3807 5.20032 9.98558 5.20001 9.58405V5.6C5.20001 4.53913 5.62144 3.52172 6.37158 2.77157C7.12173 2.02143 8.13914 1.6 9.20001 1.6C10.2609 1.6 11.2783 2.02143 12.0284 2.77157C12.7786 3.52172 13.2 4.53913 13.2 5.6V9.58405C13.1997 9.98558 13.099 10.3807 12.907 10.7333L10.825 14.5503L15.7081 17.7243C16.0438 17.9417 16.3197 18.2398 16.5105 18.5913C16.7012 18.9429 16.8008 19.3366 16.8 19.7366V22.4Z"
    fill="#6D7275"
  />
</svg>
