<svg
  width="64"
  height="64"
  viewBox="0 0 64 64"
  fill="none"
  xmlns="http://www.w3.org/2000/svg"
>
  <path
    d="M21.2353 6C20.3226 5.99952 19.4322 6.28214 18.6868 6.80891C17.9414 7.33567 17.3778 8.08065 17.0735 8.94118H12.4118C11.2417 8.94118 10.1195 9.40599 9.29218 10.2334C8.46481 11.0607 8 12.1829 8 13.3529V48.6471C8 49.8171 8.46481 50.9393 9.29218 51.7666C10.1195 52.594 11.2417 53.0588 12.4118 53.0588H32.2853C31.5362 52.1516 30.8882 51.1654 30.3529 50.1176H12.4118C12.0217 50.1176 11.6477 49.9627 11.3719 49.6869C11.0961 49.4111 10.9412 49.0371 10.9412 48.6471V13.3529C10.9412 12.9629 11.0961 12.5889 11.3719 12.3131C11.6477 12.0373 12.0217 11.8824 12.4118 11.8824H17.0735C17.3778 12.7429 17.9414 13.4879 18.6868 14.0146C19.4322 14.5414 20.3226 14.824 21.2353 14.8235H30.0588C30.9715 14.824 31.862 14.5414 32.6073 14.0146C33.3527 13.4879 33.9163 12.7429 34.2206 11.8824H38.8824C39.2724 11.8824 39.6464 12.0373 39.9222 12.3131C40.198 12.5889 40.3529 12.9629 40.3529 13.3529V27.1971C41.3143 26.9249 42.299 26.7428 43.2941 26.6529V13.3529C43.2941 12.1829 42.8293 11.0607 42.0019 10.2334C41.1746 9.40599 40.0524 8.94118 38.8824 8.94118H34.2206C33.9163 8.08065 33.3527 7.33567 32.6073 6.80891C31.862 6.28214 30.9715 5.99952 30.0588 6H21.2353ZM19.7647 10.4118C19.7647 10.0217 19.9196 9.64769 20.1954 9.3719C20.4712 9.09611 20.8453 8.94118 21.2353 8.94118H30.0588C30.4488 8.94118 30.8229 9.09611 31.0987 9.3719C31.3745 9.64769 31.5294 10.0217 31.5294 10.4118C31.5294 10.8018 31.3745 11.1758 31.0987 11.4516C30.8229 11.7274 30.4488 11.8824 30.0588 11.8824H21.2353C20.8453 11.8824 20.4712 11.7274 20.1954 11.4516C19.9196 11.1758 19.7647 10.8018 19.7647 10.4118ZM34.0412 29.1C34.3173 28.8239 34.4724 28.4493 34.4724 28.0588C34.4724 27.6683 34.3173 27.2938 34.0412 27.0176C33.765 26.7415 33.3905 26.5864 33 26.5864C32.6095 26.5864 32.235 26.7415 31.9588 27.0176L22.7059 36.2735L19.3353 32.9C19.1986 32.7633 19.0362 32.6548 18.8576 32.5808C18.679 32.5068 18.4875 32.4687 18.2941 32.4687C18.1008 32.4687 17.9093 32.5068 17.7306 32.5808C17.552 32.6548 17.3897 32.7633 17.2529 32.9C17.1162 33.0367 17.0078 33.199 16.9338 33.3777C16.8598 33.5563 16.8217 33.7478 16.8217 33.9412C16.8217 34.1345 16.8598 34.326 16.9338 34.5047C17.0078 34.6833 17.1162 34.8456 17.2529 34.9824L21.6647 39.3941C21.8013 39.5311 21.9636 39.6397 22.1423 39.7139C22.3209 39.788 22.5124 39.8262 22.7059 39.8262C22.8993 39.8262 23.0908 39.788 23.2695 39.7139C23.4482 39.6397 23.6105 39.5311 23.7471 39.3941L34.0412 29.1ZM58 42.7647C58 46.2749 56.6056 49.6414 54.1235 52.1235C51.6414 54.6056 48.2749 56 44.7647 56C41.2545 56 37.888 54.6056 35.4059 52.1235C32.9238 49.6414 31.5294 46.2749 31.5294 42.7647C31.5294 39.2545 32.9238 35.888 35.4059 33.4059C37.888 30.9238 41.2545 29.5294 44.7647 29.5294C48.2749 29.5294 51.6414 30.9238 54.1235 33.4059C56.6056 35.888 58 39.2545 58 42.7647ZM46.2353 36.8824C46.2353 36.4923 46.0804 36.1183 45.8046 35.8425C45.5288 35.5667 45.1547 35.4118 44.7647 35.4118C44.3747 35.4118 44.0006 35.5667 43.7248 35.8425C43.4491 36.1183 43.2941 36.4923 43.2941 36.8824V41.2941H38.8824C38.4923 41.2941 38.1183 41.4491 37.8425 41.7248C37.5667 42.0006 37.4118 42.3747 37.4118 42.7647C37.4118 43.1547 37.5667 43.5288 37.8425 43.8046C38.1183 44.0804 38.4923 44.2353 38.8824 44.2353H43.2941V48.6471C43.2941 49.0371 43.4491 49.4111 43.7248 49.6869C44.0006 49.9627 44.3747 50.1176 44.7647 50.1176C45.1547 50.1176 45.5288 49.9627 45.8046 49.6869C46.0804 49.4111 46.2353 49.0371 46.2353 48.6471V44.2353H50.6471C51.0371 44.2353 51.4111 44.0804 51.6869 43.8046C51.9627 43.5288 52.1176 43.1547 52.1176 42.7647C52.1176 42.3747 51.9627 42.0006 51.6869 41.7248C51.4111 41.4491 51.0371 41.2941 50.6471 41.2941H46.2353V36.8824Z"
    fill="#323B4B"
  />
</svg>
