<svg
  width="24"
  height="24"
  viewBox="0 0 24 24"
  fill="none"
  xmlns="http://www.w3.org/2000/svg"
>
  <path
    d="M12 0C5.3726 0 0 5.37255 0 12C0 18.6275 5.3726 24 12 24C18.6274 24 24 18.6274 24 12C24 5.3726 18.6275 0 12 0ZM19.3539 19.3539C17.5304 21.1719 15.0953 22.2459 12.5232 22.3665C9.95106 22.4872 7.42614 21.6459 5.44041 20.0067C3.45468 18.3674 2.15038 16.0475 1.78168 13.4991C1.41297 10.9507 2.00626 8.35628 3.44594 6.2214C4.88563 4.08653 7.06857 2.56413 9.56942 1.95084C12.0703 1.33755 14.7099 1.67731 16.9739 2.90392C19.2379 4.13052 20.9642 6.1561 21.8163 8.58597C22.6684 11.0158 22.5854 13.6759 21.5833 16.0479C21.0611 17.2838 20.304 18.4065 19.3539 19.3539V19.3539Z"
    fill="#E6E6E6"
  />
  <path
    d="M11.1692 7.44727L14.9219 11.2H5.59424V12.8H14.9219L11.1692 16.5527L12.3006 17.684L17.9846 12L12.3006 6.31592L11.1692 7.44727Z"
    fill="#E6E6E6"
  />
</svg>
